<svg xmlns="http://www.w3.org/2000/svg" viewBox="0 0 400 300" width="400" height="300">
  <defs>
    <linearGradient id="grad" x1="0" y1="0" x2="1" y2="1">
      <stop offset="0%" stop-color="#9b59b6"/>
      <stop offset="50%" stop-color="#e84393"/>
      <stop offset="100%" stop-color="#f39c12"/>
    </linearGradient>
  </defs>
  <rect width="400" height="300" fill="url(#grad)"/>
  <!-- Nav -->
  <rect x="10" y="8" width="380" height="32" rx="16" fill="rgba(255,255,255,0.2)"/>
  <rect x="24" y="18" width="45" height="6" rx="3" fill="#fff"/>
  <rect x="160" y="19" width="22" height="4" rx="2" fill="rgba(255,255,255,0.6)"/>
  <rect x="192" y="19" width="22" height="4" rx="2" fill="rgba(255,255,255,0.6)"/>
  <rect x="224" y="19" width="22" height="4" rx="2" fill="rgba(255,255,255,0.6)"/>
  <rect x="350" y="16" width="30" height="12" rx="6" fill="#fff"/>
  <!-- Sticker elements -->
  <circle cx="50" cy="75" r="14" fill="#fff" opacity="0.25"/>
  <circle cx="360" cy="68" r="10" fill="#fff" opacity="0.2"/>
  <!-- Heading -->
  <rect x="40" y="62" width="140" height="10" rx="5" fill="#fff"/>
  <rect x="40" y="78" width="100" height="5" rx="2" fill="rgba(255,255,255,0.5)"/>
  <!-- Playful cards -->
  <rect x="20" y="100" width="115" height="100" rx="20" fill="rgba(255,255,255,0.2)"/>
  <rect x="20" y="100" width="115" height="100" rx="20" fill="none" stroke="rgba(255,255,255,0.4)" stroke-width="1.5"/>
  <circle cx="77" cy="132" r="15" fill="rgba(255,255,255,0.2)"/>
  <rect x="42" y="158" width="70" height="5" rx="2" fill="#fff"/>
  <rect x="42" y="168" width="50" height="4" rx="2" fill="rgba(255,255,255,0.5)"/>
  <rect x="42" y="182" width="40" height="8" rx="4" fill="#fff"/>
  <rect x="142.5" y="100" width="115" height="100" rx="20" fill="rgba(255,255,255,0.2)"/>
  <rect x="142.5" y="100" width="115" height="100" rx="20" fill="none" stroke="rgba(255,255,255,0.4)" stroke-width="1.5"/>
  <circle cx="200" cy="132" r="15" fill="rgba(255,255,255,0.2)"/>
  <rect x="164.5" y="158" width="70" height="5" rx="2" fill="#fff"/>
  <rect x="164.5" y="168" width="50" height="4" rx="2" fill="rgba(255,255,255,0.5)"/>
  <rect x="164.5" y="182" width="40" height="8" rx="4" fill="#fff"/>
  <rect x="265" y="100" width="115" height="100" rx="20" fill="rgba(255,255,255,0.2)"/>
  <rect x="265" y="100" width="115" height="100" rx="20" fill="none" stroke="rgba(255,255,255,0.4)" stroke-width="1.5"/>
  <circle cx="322" cy="132" r="15" fill="rgba(255,255,255,0.2)"/>
  <rect x="287" y="158" width="70" height="5" rx="2" fill="#fff"/>
  <rect x="287" y="168" width="50" height="4" rx="2" fill="rgba(255,255,255,0.5)"/>
  <rect x="287" y="182" width="40" height="8" rx="4" fill="#fff"/>
  <!-- Fun sticker badges -->
  <circle cx="370" cy="115" r="12" fill="#fff" opacity="0.3"/>
  <text x="370" y="119" text-anchor="middle" font-family="Arial" font-size="8" font-weight="bold" fill="#e84393">NEW</text>
  <!-- Footer -->
  <rect x="10" y="218" width="380" height="40" rx="20" fill="rgba(255,255,255,0.15)"/>
  <rect x="30" y="233" width="45" height="5" rx="2" fill="rgba(255,255,255,0.4)"/>
  <rect x="30" y="241" width="65" height="3" rx="1" fill="rgba(255,255,255,0.25)"/>
  <rect x="340" y="232" width="35" height="10" rx="5" fill="#fff"/>
  <!-- Bottom bar -->
  <rect x="10" y="266" width="380" height="26" rx="13" fill="rgba(255,255,255,0.1)"/>
  <rect x="170" y="275" width="60" height="4" rx="2" fill="rgba(255,255,255,0.3)"/>
</svg>
