<svg xmlns="http://www.w3.org/2000/svg" viewBox="0 0 400 300" width="400" height="300">
  <rect width="400" height="300" fill="#0a0a0a"/>
  <!-- Decorative top line -->
  <line x1="0" y1="0" x2="400" y2="0" stroke="#d4a574" stroke-width="2"/>
  <!-- Nav -->
  <rect x="0" y="0" width="400" height="42" fill="#0a0a0a" stroke="#222" stroke-width="0.5"/>
  <text x="200" y="28" text-anchor="middle" font-family="Georgia, serif" font-size="11" fill="#d4a574" letter-spacing="4">LUXE BOUTIQUE</text>
  <!-- Decorative line -->
  <line x1="160" y1="48" x2="240" y2="48" stroke="#d4a574" stroke-width="0.5"/>
  <!-- Heading -->
  <text x="200" y="72" text-anchor="middle" font-family="Georgia, serif" font-size="14" fill="#d4a574">Curated Collection</text>
  <!-- Cards with gold borders -->
  <rect x="20" y="88" width="170" height="110" rx="2" fill="#111" stroke="#d4a574" stroke-width="1"/>
  <rect x="28" y="96" width="154" height="50" rx="1" fill="#1a1a1a"/>
  <rect x="28" y="154" width="80" height="4" rx="1" fill="#d4a574"/>
  <rect x="28" y="163" width="60" height="3" rx="1" fill="#555"/>
  <rect x="28" y="175" width="45" height="7" rx="1" fill="#d4a574"/>
  <rect x="210" y="88" width="170" height="110" rx="2" fill="#111" stroke="#d4a574" stroke-width="1"/>
  <rect x="218" y="96" width="154" height="50" rx="1" fill="#1a1a1a"/>
  <rect x="218" y="154" width="80" height="4" rx="1" fill="#d4a574"/>
  <rect x="218" y="163" width="60" height="3" rx="1" fill="#555"/>
  <rect x="218" y="175" width="45" height="7" rx="1" fill="#d4a574"/>
  <!-- Decorative divider -->
  <line x1="140" y1="215" x2="170" y2="215" stroke="#d4a574" stroke-width="0.5"/>
  <circle cx="200" cy="215" r="2" fill="#d4a574"/>
  <line x1="230" y1="215" x2="260" y2="215" stroke="#d4a574" stroke-width="0.5"/>
  <!-- Footer -->
  <rect x="0" y="245" width="400" height="55" fill="#0a0a0a" stroke="#d4a574" stroke-width="0.5"/>
  <text x="200" y="265" text-anchor="middle" font-family="Georgia, serif" font-size="8" fill="#d4a574" letter-spacing="3">EST. 2024</text>
  <rect x="170" y="272" width="60" height="1" fill="#d4a574"/>
  <text x="200" y="288" text-anchor="middle" font-family="Georgia, serif" font-size="7" fill="#555">Privacy · Terms · Contact</text>
</svg>
