<svg xmlns="http://www.w3.org/2000/svg" viewBox="0 0 400 300" width="400" height="300">
  <rect width="400" height="300" fill="#faf7f2"/>
  <!-- Nav -->
  <rect x="0" y="0" width="400" height="42" fill="#faf7f2"/>
  <circle cx="28" cy="21" r="10" fill="#5a7247"/>
  <rect x="44" y="18" width="45" height="6" rx="3" fill="#5a7247"/>
  <rect x="180" y="18" width="25" height="5" rx="2" fill="#999"/>
  <rect x="212" y="18" width="25" height="5" rx="2" fill="#999"/>
  <rect x="244" y="18" width="25" height="5" rx="2" fill="#999"/>
  <!-- Decorative circles -->
  <circle cx="360" cy="21" r="8" fill="#5a7247" opacity="0.15"/>
  <circle cx="380" cy="21" r="5" fill="#5a7247" opacity="0.25"/>
  <!-- Hero area -->
  <rect x="30" y="60" width="160" height="10" rx="5" fill="#5a7247"/>
  <rect x="30" y="78" width="120" height="5" rx="2" fill="#bbb"/>
  <rect x="30" y="88" width="100" height="5" rx="2" fill="#ccc"/>
  <rect x="30" y="102" width="60" height="14" rx="7" fill="#5a7247"/>
  <!-- Organic shapes -->
  <circle cx="340" cy="80" r="35" fill="#5a7247" opacity="0.08"/>
  <circle cx="360" cy="65" r="20" fill="#5a7247" opacity="0.12"/>
  <!-- Cards with rounded shapes -->
  <rect x="20" y="130" width="115" height="95" rx="16" fill="#ffffff" stroke="#e8e4dd" stroke-width="1"/>
  <circle cx="77" cy="162" r="18" fill="#5a7247" opacity="0.12"/>
  <rect x="42" y="190" width="70" height="5" rx="2" fill="#5a7247"/>
  <rect x="42" y="200" width="50" height="4" rx="2" fill="#ccc"/>
  <rect x="142.5" y="130" width="115" height="95" rx="16" fill="#ffffff" stroke="#e8e4dd" stroke-width="1"/>
  <circle cx="200" cy="162" r="18" fill="#5a7247" opacity="0.12"/>
  <rect x="164.5" y="190" width="70" height="5" rx="2" fill="#5a7247"/>
  <rect x="164.5" y="200" width="50" height="4" rx="2" fill="#ccc"/>
  <rect x="265" y="130" width="115" height="95" rx="16" fill="#ffffff" stroke="#e8e4dd" stroke-width="1"/>
  <circle cx="322" cy="162" r="18" fill="#5a7247" opacity="0.12"/>
  <rect x="287" y="190" width="70" height="5" rx="2" fill="#5a7247"/>
  <rect x="287" y="200" width="50" height="4" rx="2" fill="#ccc"/>
  <!-- Footer -->
  <rect x="0" y="248" width="400" height="52" fill="#5a7247"/>
  <circle cx="20" cy="274" r="4" fill="#faf7f2" opacity="0.3"/>
  <rect x="30" y="268" width="45" height="5" rx="2" fill="#faf7f2" opacity="0.5"/>
  <rect x="30" y="278" width="60" height="3" rx="1" fill="#faf7f2" opacity="0.3"/>
  <rect x="340" y="270" width="40" height="10" rx="5" fill="#faf7f2" opacity="0.9"/>
</svg>
